HIERARCHY
ROOT Hips
{
	OFFSET 0.00 0.00 0.00
	CHANNELS 6 Xposition Yposition Zposition Zrotation Xrotation Yrotation
	JOINT Spine
	{
		OFFSET 0.00 10.00 0.00
		CHANNELS 3 Zrotation Xrotation Yrotation
		JOINT Spine1
		{
			OFFSET 0.00 10.00 0.00
			CHANNELS 3 Zrotation Xrotation Yrotation
			JOINT Spine2
			{
				OFFSET 0.00 10.00 0.00
				CHANNELS 3 Zrotation Xrotation Yrotation
				JOINT Neck
				{
					OFFSET 0.00 10.00 0.00
					CHANNELS 3 Zrotation Xrotation Yrotation
					JOINT Head
					{
						OFFSET 0.00 10.00 0.00
						CHANNELS 3 Zrotation Xrotation Yrotation
						End Site
						{
							OFFSET 0.00 10.00 0.00
						}
					}
				}
				JOINT LeftArm
				{
					OFFSET 15.00 0.00 0.00
					CHANNELS 3 Zrotation Xrotation Yrotation
					JOINT LeftForeArm
					{
						OFFSET 25.00 0.00 0.00
						CHANNELS 3 Zrotation Xrotation Yrotation
						JOINT LeftHand
						{
							OFFSET 20.00 0.00 0.00
							CHANNELS 3 Zrotation Xrotation Yrotation
							End Site
							{
								OFFSET 10.00 0.00 0.00
							}
						}
					}
				}
				JOINT RightArm
				{
					OFFSET -15.00 0.00 0.00
					CHANNELS 3 Zrotation Xrotation Yrotation
					JOINT RightForeArm
					{
						OFFSET -25.00 0.00 0.00
						CHANNELS 3 Zrotation Xrotation Yrotation
						JOINT RightHand
						{
							OFFSET -20.00 0.00 0.00
							CHANNELS 3 Zrotation Xrotation Yrotation
							End Site
							{
								OFFSET -10.00 0.00 0.00
							}
						}
					}
				}
			}
		}
	}
	JOINT LeftUpLeg
	{
		OFFSET 8.00 -15.00 0.00
		CHANNELS 3 Zrotation Xrotation Yrotation
		JOINT LeftLeg
		{
			OFFSET 0.00 -35.00 0.00
			CHANNELS 3 Zrotation Xrotation Yrotation
			JOINT LeftFoot
			{
				OFFSET 0.00 -35.00 0.00
				CHANNELS 3 Zrotation Xrotation Yrotation
				JOINT LeftToeBase
				{
					OFFSET 0.00 -5.00 10.00
					CHANNELS 3 Zrotation Xrotation Yrotation
					End Site
					{
						OFFSET 0.00 -5.00 10.00
					}
				}
			}
		}
	}
	JOINT RightUpLeg
	{
		OFFSET -8.00 -15.00 0.00
		CHANNELS 3 Zrotation Xrotation Yrotation
		JOINT RightLeg
		{
			OFFSET 0.00 -35.00 0.00
			CHANNELS 3 Zrotation Xrotation Yrotation
			JOINT RightFoot
			{
				OFFSET 0.00 -35.00 0.00
				CHANNELS 3 Zrotation Xrotation Yrotation
				JOINT RightToeBase
				{
					OFFSET 0.00 -5.00 10.00
					CHANNELS 3 Zrotation Xrotation Yrotation
					End Site
					{
						OFFSET 0.00 -5.00 10.00
					}
				}
			}
		}
	}
}
MOTION
Frames: 21
Frame Time: 0.034483
-0.0579 0.1424 -0.1503 179.0095 -172.6914 15.4161 8.0924 1.4720 0.1041 8.0924 1.4720 0.1041 8.0924 1.4720 0.1041 -30.3227 44.6176 -12.6884 -45.9828 78.1144 -37.9963 34.4038 -9.2765 29.3692 -77.0564 54.4329 65.7170 -124.3553 68.5952 39.5944 -56.4703 -20.2740 -36.8312 -0.4697 -0.2831 -62.1504 111.6591 79.5738 -58.9615 -10.1908 -9.7951 0.8755 -12.5762 17.3473 -1.9261 20.0172 21.4756 3.8336 5.2449 24.0024 -24.3183 3.5858 -1.1188 -0.0350 14.1364 20.3748 2.5529 15.9059 -38.2698 -5.5501 -0.8653 2.8630 33.6269
-0.0631 0.1430 -0.1470 179.0324 -172.5994 14.8779 7.8048 2.3394 0.1596 7.8048 2.3394 0.1596 7.8048 2.3394 0.1596 -29.8303 45.2330 -12.6640 -46.0251 77.7406 -37.7976 35.2824 -9.4754 29.2140 -75.3999 52.9916 65.6418 -121.8547 67.4578 40.7289 -58.8315 -19.2297 -33.4459 1.0116 0.5336 -55.6180 109.9001 75.1680 -56.7311 -9.4284 -9.9984 0.8266 -13.4118 15.4031 -1.8219 20.3378 18.5928 3.3636 4.6010 26.1663 -19.6149 3.6991 -0.9011 -0.0291 14.0848 19.5804 2.4423 15.6210 -37.8708 -5.3885 -1.5694 4.9048 35.4685
-0.0639 0.1434 -0.1471 179.0624 -172.8310 14.8827 7.8093 2.4489 0.1672 7.8093 2.4489 0.1672 7.8093 2.4489 0.1672 -29.7109 45.8385 -12.7980 -46.4511 77.6883 -38.1276 35.4266 -9.5198 29.2240 -75.3078 52.9039 65.6284 -121.4750 66.9626 40.6695 -59.4368 -19.2249 -33.0513 3.5852 1.9500 -57.0727 109.5248 74.3661 -56.3703 -9.1542 -9.9424 0.7979 -13.6428 15.3888 -1.8518 20.4296 18.6245 3.3849 4.2600 26.5928 -17.8876 3.9017 -0.9036 -0.0308 14.1529 19.1757 2.4026 15.6231 -37.8129 -5.3804 -1.9709 5.8654 37.1204
-0.0656 0.1435 -0.1472 179.1519 -173.5477 14.9607 7.8334 2.5567 0.1751 7.8334 2.5567 0.1751 7.8334 2.5567 0.1751 -29.4240 46.8740 -12.9875 -46.8086 77.8779 -38.5530 35.5650 -9.4280 28.8374 -74.5368 52.8865 66.3379 -122.1030 68.8465 41.5203 -59.8469 -18.7509 -32.0123 6.4293 3.5663 -57.9988 108.9710 71.8587 -54.6934 -9.0584 -9.7785 0.7765 -13.4328 14.9013 -1.7646 20.7660 17.6839 3.2653 4.5069 26.1132 -19.2606 4.3790 -0.8781 -0.0336 13.9957 19.1010 2.3662 15.4607 -37.7290 -5.3112 -2.0327 5.9865 37.4825
-0.0678 0.1445 -0.1466 179.2726 -174.5072 15.0756 7.9177 2.5587 0.1771 7.9177 2.5587 0.1771 7.9177 2.5587 0.1771 -29.5331 47.6256 -13.2703 -48.2254 77.1455 -39.2887 36.3047 -9.3647 28.0526 -74.1669 52.7472 66.5297 -121.9049 68.6454 41.5321 -59.9510 -18.0627 -30.8137 7.5231 4.1526 -57.7464 109.1122 71.5412 -54.2996 -8.9643 -9.8276 0.7723 -13.4089 13.5779 -1.6035 20.9634 15.9915 2.9772 4.2765 25.2115 -18.9572 4.5386 -0.9438 -0.0374 13.9567 18.4368 2.2761 15.3000 -37.9426 -5.2874 -2.4645 7.3239 37.1535
-0.0683 0.1451 -0.1463 179.2933 -174.7098 15.2073 7.8710 2.5678 0.1767 7.8710 2.5678 0.1767 7.8710 2.5678 0.1767 -29.4176 48.2659 -13.4152 -49.0253 76.4844 -39.5344 36.6618 -9.1406 27.1290 -71.7034 51.2165 67.1125 -122.5747 70.7163 42.4801 -60.0192 -17.9245 -30.5451 8.3779 4.5994 -57.4726 108.5998 70.6013 -53.9332 -8.8157 -9.8794 0.7634 -13.5152 12.8757 -1.5320 20.9966 15.3436 2.8598 4.4558 25.3064 -19.6624 4.7297 -1.1262 -0.0465 14.0281 17.7418 2.2002 15.2026 -38.1760 -5.2881 -2.5966 7.7918 36.8135
-0.0688 0.1454 -0.1481 179.3438 -175.1053 15.2635 7.8466 2.3988 0.1645 7.8466 2.3988 0.1645 7.8466 2.3988 0.1645 -29.5192 48.8688 -13.6517 -50.2950 75.8512 -40.1841 37.8526 -8.6556 24.8923 -64.4250 47.1452 69.4074 -123.5031 76.2814 45.7499 -60.9002 -17.9231 -30.0321 11.6826 6.5830 -58.6856 109.4637 69.2652 -52.0675 -8.7855 -9.9571 0.7668 -13.2699 12.3672 -1.4441 21.7354 14.9801 2.8918 4.4785 24.8589 -20.1206 4.8970 -1.1962 -0.0512 14.1739 17.7614 2.2258 15.4158 -38.0555 -5.3449 -2.5776 7.7470 36.7605
-0.0691 0.1458 -0.1494 179.3870 -175.4450 15.3225 7.8286 2.2974 0.1572 7.8286 2.2974 0.1572 7.8286 2.2974 0.1572 -29.5535 49.2668 -13.7932 -50.8592 75.5865 -40.4800 38.6881 -8.5672 24.0883 -59.4990 43.9950 70.5073 -122.9477 77.2498 46.9501 -61.2426 -17.9172 -29.8273 13.3535 7.6533 -59.4861 109.6272 68.8215 -51.5577 -8.7700 -10.0037 0.7691 -13.0172 12.1891 -1.3958 22.1949 14.9191 2.9423 4.6239 24.3655 -21.1847 4.9918 -1.2259 -0.0534 14.2394 17.7114 2.2298 15.5013 -38.0499 -5.3740 -2.5476 7.6835 36.6421
-0.0695 0.1460 -0.1513 179.4107 -175.5631 15.1239 7.8035 3.0344 0.2070 7.8035 3.0344 0.2070 7.8035 3.0344 0.2070 -29.4907 49.8804 -13.9559 -52.9088 73.3586 -40.6705 38.8210 -8.7245 24.4309 -53.8962 40.7713 72.3309 -123.2365 80.9955 49.5382 -61.2231 -17.6217 -29.3602 13.8782 7.9753 -59.6065 109.0798 68.6808 -51.8947 -8.7689 -10.2899 0.7911 -12.9214 11.9102 -1.3535 22.1852 14.7940 2.9161 4.4117 23.5172 -20.9673 5.2361 -1.2089 -0.0553 14.2687 17.7080 2.2340 15.4760 -38.0590 -5.3665 -2.5474 7.6881 36.6184
-0.0703 0.1457 -0.1516 179.4591 -175.8097 14.7049 7.5875 3.6313 0.2409 7.5875 3.6313 0.2409 7.5875 3.6313 0.2409 -29.1132 50.4152 -13.9379 -53.9590 71.7909 -40.4523 38.6380 -7.9943 22.5456 -47.5425 36.4447 73.5522 -123.1353 80.8080 49.4858 -61.6019 -15.7369 -26.1040 14.5281 7.9928 -57.4542 106.0485 64.0648 -50.4456 -8.8407 -10.4076 0.8067 -12.8811 11.1990 -1.2682 22.4488 13.8713 2.7657 4.0824 23.4689 -19.4725 5.7744 -1.1279 -0.0569 14.2076 17.8511 2.2426 15.7607 -37.5732 -5.3914 -2.6823 7.7030 38.3512
-0.0749 0.1458 -0.1463 179.4915 -175.8003 13.8021 6.7728 3.2914 0.1948 6.7728 3.2914 0.1948 6.7728 3.2914 0.1948 -28.2202 49.9281 -13.3492 -52.9003 72.2154 -39.8899 39.3952 -8.0173 22.1510 -29.2678 21.9237 73.1350 -121.1466 79.6922 50.4171 -62.6602 -13.0591 -21.2978 14.1058 7.0958 -53.2348 104.5854 61.8607 -49.7111 -8.9310 -10.8014 0.8460 -13.0143 9.1344 -1.0441 22.5265 11.5453 2.3068 3.4899 22.7186 -17.2457 5.9716 -1.3695 -0.0714 14.0972 17.4747 2.1773 15.6081 -37.9108 -5.3901 -2.2680 6.5283 38.2816
-0.0753 0.1466 -0.1560 179.5018 -175.1112 11.6313 6.7916 2.8323 0.1681 6.7916 2.8323 0.1681 6.7916 2.8323 0.1681 -28.6772 50.0506 -13.6102 -56.0735 69.6478 -40.6543 39.8038 -9.1446 24.9127 -13.8335 10.8187 75.9499 -124.0716 88.1298 54.3932 -63.9663 -15.0512 -23.8901 20.3467 10.6498 -54.8949 108.5483 64.8515 -49.1121 -8.8064 -11.9227 0.9214 -13.0012 10.0505 -1.1481 22.2142 12.3994 2.4434 2.5995 20.3497 -14.4102 5.9663 -1.8405 -0.0959 14.1087 16.9762 2.1160 15.4195 -38.6494 -5.4361 -1.7106 4.9841 37.8653
-0.0754 0.1475 -0.1719 179.5092 -171.3873 6.5112 6.7827 2.0365 0.1207 6.7827 2.0365 0.1207 6.7827 2.0365 0.1207 -29.8869 48.8324 -13.8164 -59.0080 66.5794 -40.7659 37.9954 -10.7393 30.5406 6.0580 -4.8292 77.1016 -132.2990 106.0042 60.8037 -63.9439 -16.4873 -26.1350 25.7607 13.9954 -56.4514 108.2951 60.5130 -45.7134 -8.6483 -13.0621 0.9920 -13.2202 9.6802 -1.1244 22.0762 11.4007 2.2310 1.4552 18.4043 -8.9649 6.1042 -1.4709 -0.0784 14.0130 16.5701 2.0506 15.3160 -39.2761 -5.4938 -1.4335 4.2250 37.4692
-0.0755 0.1482 -0.1777 179.5121 -166.0261 3.9792 6.7834 1.6508 0.0978 6.7834 1.6508 0.0978 6.7834 1.6508 0.0978 -30.6789 48.0189 -13.9323 -60.1531 65.3132 -40.7276 37.2732 -11.2053 32.4368 15.0375 -11.9247 76.7093 -134.8927 110.4852 61.8013 -63.8246 -17.1592 -27.2373 28.0315 15.3122 -56.6067 108.7198 64.5449 -48.7201 -8.6003 -13.4794 1.0182 -13.3012 9.5474 -1.1158 21.9503 10.9939 2.1384 1.0443 16.9386 -7.0046 6.2633 -1.3936 -0.0762 13.8424 16.3442 1.9974 14.9788 -39.6922 -5.4332 -1.1715 3.3952 38.0647
-0.0768 0.1481 -0.1770 179.5020 -165.7789 3.9904 6.5871 1.8272 0.1052 6.5871 1.8272 0.1052 6.5871 1.8272 0.1052 -31.3643 48.2577 -14.3353 -60.4185 65.0502 -40.7379 38.3005 -11.9658 33.5871 22.1007 -16.4611 73.0523 -143.4831 126.3665 66.2605 -62.7767 -16.8141 -27.2334 32.0975 18.2461 -58.3441 110.4724 67.3770 -49.6593 -8.6206 -13.0543 0.9882 -12.5614 10.1336 -1.1182 22.3419 11.6142 2.3011 1.6272 16.4285 -11.2364 6.4879 -1.4928 -0.0846 13.5632 16.4296 1.9671 14.6982 -39.7925 -5.3451 -1.0360 2.9202 39.0585
-0.0776 0.1478 -0.1795 179.4767 -161.6752 3.2433 6.3841 1.9075 0.1064 6.3841 1.9075 0.1064 6.3841 1.9075 0.1064 -31.8420 48.4330 -14.6218 -60.8912 64.2688 -40.5281 35.7479 -10.0387 30.4698 33.5174 -20.1601 61.1094 -156.3622 151.1692 78.2971 -61.7487 -14.9674 -24.7837 35.6045 21.0974 -60.2209 110.4787 62.5302 -45.6991 -8.7444 -13.0634 1.0031 -12.4335 10.7352 -1.1728 22.1415 12.2709 2.4098 1.6811 17.0354 -11.1896 6.5094 -1.6516 -0.0939 13.5074 15.8517 1.8891 14.2598 -39.9272 -5.2032 -0.6407 1.8278 38.6312
-0.0771 0.1478 -0.1825 179.4497 -159.3498 3.0197 6.1605 4.8892 0.2633 6.1605 4.8892 0.2633 6.1605 4.8892 0.2633 -31.1234 50.6951 -15.0303 -56.8176 68.2619 -40.2700 33.0374 -5.0685 16.9764 32.8776 -8.9643 29.7569 69.7328 -58.4067 77.4766 -60.2928 -14.6740 -25.0014 36.3305 22.5206 -62.4990 112.4669 63.0465 -44.5961 -9.4845 -12.8197 1.0679 -12.0092 10.9165 -1.1517 22.3817 12.1391 2.4103 1.6346 18.8932 -9.8012 6.3402 -1.4105 -0.0781 13.6181 15.6246 1.8771 14.1218 -39.8365 -5.1397 -0.0978 0.2829 38.1442
-0.0754 0.1475 -0.1928 -180.0000 0.0000 0.0000 6.0150 5.8380 0.3070 6.0150 5.8380 0.3070 6.0150 5.8380 0.3070 -31.6602 50.4766 -15.2255 -56.5799 68.1781 -40.0284 31.4229 -2.3048 8.1803 35.2453 -4.9042 15.3556 64.3518 -47.8973 70.4415 -57.7786 -13.8471 -24.8222 39.8511 25.8100 -64.5908 114.9635 63.7080 -43.2180 -9.3696 -13.0082 1.0706 -12.0143 10.1128 -1.0669 22.7719 10.7780 2.1766 0.2815 18.2636 -1.7512 6.4648 2.2820 0.1289 13.8307 19.3151 2.3647 15.0708 -37.8124 -5.1881 2.4388 -5.8434 45.2788
-0.0715 0.1472 -0.1917 -180.0000 0.0000 0.0000 5.9186 5.0674 0.2621 5.9186 5.0674 0.2621 5.9186 5.0674 0.2621 -32.9750 50.3136 -15.8272 -57.1953 67.6328 -40.1226 31.9100 -0.8240 2.8815 39.6327 -5.9740 16.4791 80.0005 -62.4865 71.7320 -56.6941 -13.4495 -24.6568 45.1086 30.4049 -66.3920 115.5821 62.2701 -41.6673 -9.2705 -13.3149 1.0844 -9.8122 10.9862 -0.9459 24.6573 9.5693 2.0961 1.1912 19.5037 -6.9228 7.4694 2.6067 0.1702 13.6802 21.2666 2.5803 14.9639 -36.9136 -5.0197 2.6890 -5.7127 50.3855
-0.0694 0.1470 -0.1920 179.4514 113.4471 -0.8359 5.8153 4.6161 0.2346 5.8153 4.6161 0.2346 5.8153 4.6161 0.2346 -33.7157 50.1327 -16.1334 -57.1154 67.7897 -40.1706 32.1456 -0.9688 3.3616 41.4850 -8.2940 21.6764 87.6372 -71.8432 74.1030 -56.2235 -13.3442 -24.7027 47.4863 32.6609 -67.3354 116.5705 62.6035 -41.1881 -9.0424 -13.4269 1.0666 -9.3026 11.7450 -0.9589 24.8255 10.0228 2.2114 0.7981 19.0542 -4.7529 8.0675 1.9748 0.1393 13.7005 20.7044 2.5143 14.8152 -37.2690 -5.0206 2.7980 -5.9841 50.0883
-0.0652 0.1468 -0.1899 179.4621 99.6060 -0.6365 5.7675 7.4033 0.3735 5.7675 7.4033 0.3735 5.7675 7.4033 0.3735 -32.0308 54.5417 -16.8335 -58.1278 67.7432 -40.9172 30.7490 4.8788 -17.6139 40.8539 8.7543 -23.2282 64.7405 -40.0973 59.8582 -53.2093 -12.0014 -23.7053 50.2088 34.4520 -66.9893 117.7250 60.0640 -38.5030 -8.8424 -12.2406 0.9500 -9.0658 13.0182 -1.0365 24.4540 11.9068 2.5891 1.1965 20.1518 -6.7259 7.9651 3.4400 0.2396 13.8054 22.0409 2.7012 15.3768 -35.5420 -4.9551 3.4023 -7.7549 47.3252
